<svg id="Page-1" xmlns="http://www.w3.org/2000/svg" width="23.797" height="23.792" viewBox="0 0 23.797 23.792">
  <g id="_081---Clock" data-name="081---Clock">
    <path id="Shape" d="M29.221,11.7h.023a.4.4,0,0,0,.4-.374c0-.074,0-.149,0-.224a11.032,11.032,0,0,0-1.479-5.526c0-.008,0-.018-.009-.026s-.013-.013-.018-.021A11.183,11.183,0,0,0,24.113,1.51C24.1,1.5,24.1,1.5,24.092,1.492s-.018,0-.026-.009a11.06,11.06,0,0,0-11.047,0c-.01,0-.021,0-.031.01s-.016.016-.026.023a11.15,11.15,0,0,0-1.139.747A.4.4,0,0,0,12.3,2.9c.241-.183.489-.353.741-.513l.392.68a.4.4,0,0,0,.687-.4l-.394-.683A10.185,10.185,0,0,1,18.144.812v.777a.4.4,0,1,0,.793,0V.806a10.241,10.241,0,0,1,4.41,1.183l-.391.677a.4.4,0,1,0,.687.4l.39-.674A10.385,10.385,0,0,1,27.26,5.616l-.674.39a.4.4,0,1,0,.4.687l.677-.391a10.245,10.245,0,0,1,1.192,4.8c0,.059,0,.119,0,.179a.4.4,0,0,0,.373.419Z" transform="translate(-7.433 -0.005)" fill="#1d0909"/>
    <path id="Shape-2" data-name="Shape" d="M35.345,28a6.345,6.345,0,1,0,6.345,6.345A6.345,6.345,0,0,0,35.345,28Zm0,11.9A5.552,5.552,0,1,1,40.9,34.345,5.552,5.552,0,0,1,35.345,39.9Z" transform="translate(-17.893 -16.898)" fill="#1d0909"/>
    <path id="Shape-3" data-name="Shape" d="M22.852,8.354A1.164,1.164,0,0,0,22.008,8a1.19,1.19,0,0,0-1.19,1.19v5.7a1.572,1.572,0,0,0-.386.93l-2.67,2.67a1.19,1.19,0,0,0,1.683,1.683l2.671-2.67A1.572,1.572,0,0,0,23.2,14.893V9.19A1.16,1.16,0,0,0,22.852,8.354Zm-.843.439a.388.388,0,0,1,.282.121.38.38,0,0,1,.114.275V14.4a1.425,1.425,0,0,0-.793,0V9.19A.4.4,0,0,1,22.008,8.793ZM18.885,19.617a.4.4,0,0,1-.562-.561l2.323-2.323a1.586,1.586,0,0,0,.562.562Zm3.124-2.892a.793.793,0,1,1,.793-.793A.793.793,0,0,1,22.008,16.724Z" transform="translate(-10.902 -4.829)" fill="#1d0909"/>
    <path id="Shape-4" data-name="Shape" d="M2.508,23.109a11.183,11.183,0,0,0,4.019,4.013c.008.006.012.013.021.018l.04.016A11.032,11.032,0,0,0,12.1,28.629c.075,0,.15,0,.225,0a.4.4,0,0,0,.373-.418.406.406,0,0,0-.418-.373c-.061,0-.119,0-.18,0a10.245,10.245,0,0,1-4.806-1.193l.391-.677a.4.4,0,0,0-.687-.4l-.39.674A10.385,10.385,0,0,1,3.38,23.017l.674-.39a.4.4,0,1,0-.4-.687l-.677.391A10.241,10.241,0,0,1,1.8,17.921h.783a.4.4,0,1,0,0-.793H1.8a10.192,10.192,0,0,1,1.171-4.413l.683.394a.4.4,0,1,0,.4-.687l-.68-.393c.159-.253.33-.5.513-.741a.4.4,0,1,0-.631-.48A11.193,11.193,0,0,0,2.5,11.946c-.007.01-.017.015-.023.026s-.006.021-.011.031a11.06,11.06,0,0,0,0,11.046c0,.008,0,.018.009.026a.382.382,0,0,0,.029.032Z" transform="translate(-0.993 -6.423)" fill="#1d0909"/>
    <path id="Shape-5" data-name="Shape" d="M42.966,35.578a.4.4,0,0,0,.793,0,2.249,2.249,0,0,0-1.983-2.148V33.4a.4.4,0,0,0-.793,0v.033a2.155,2.155,0,0,0,0,4.3v2.76a1.436,1.436,0,0,1-1.19-1.339.4.4,0,1,0-.793,0A2.249,2.249,0,0,0,40.983,41.3v.033a.4.4,0,1,0,.793,0V41.3a2.155,2.155,0,0,0,0-4.3v-2.76A1.436,1.436,0,0,1,42.966,35.578Zm-3.173,0a1.436,1.436,0,0,1,1.19-1.339v2.678A1.436,1.436,0,0,1,39.793,35.578Zm3.173,3.569a1.436,1.436,0,0,1-1.19,1.339V37.808A1.436,1.436,0,0,1,42.966,39.147Z" transform="translate(-23.927 -19.915)" fill="#1d0909"/>
  </g>
</svg>
