<svg id="selling" xmlns="http://www.w3.org/2000/svg" width="21.48" height="24.784" viewBox="0 0 21.48 24.784">
  <path id="Path_43" data-name="Path 43" d="M49.239,22.4V34.134L48.008,40.29a.413.413,0,0,0,.405.494h1.239a.413.413,0,0,0,.369-.228L52.5,35.6a.413.413,0,0,0,.036-.1l.085-.427.35.874.819,4.5a.413.413,0,0,0,.406.339h1.239a.413.413,0,0,0,.413-.413V35.828a.413.413,0,0,0-.009-.087L54.609,30V27.466a7.7,7.7,0,0,0,1.239.1H57.5a.413.413,0,0,0,.413-.413V26.74h3.3a.413.413,0,0,0,.413-.413V19.3a.413.413,0,0,0-.413-.413h-5.37a.413.413,0,0,0-.413.413v3.718l-.828-.621a2.5,2.5,0,0,0-.494-1.417l-.592-.789a1.642,1.642,0,0,0,.262-.89v-1.94a1.364,1.364,0,0,0-2.121-1.135l-1,.666a.413.413,0,0,0-.184.344V19.3a1.642,1.642,0,0,0,.2.782l-.445.334A2.49,2.49,0,0,0,49.239,22.4ZM49.4,39.958h-.48l1.14-5.7a.413.413,0,0,0,.008-.081V28.392h3.718v1.481l-.676.676a2.47,2.47,0,0,0-.678,1.266l-.693,3.463Zm5.625,0h-.481l-.764-4.2a.411.411,0,0,0-.023-.08l-.826-2.065-.015.006.327-1.637a1.647,1.647,0,0,1,.452-.844l.26-.26,1.071,5ZM53.783,27.566H50.065V24.947a7.7,7.7,0,0,0,3.718,2.336Zm3.3-.826h-.826v-.826h.826Zm-.826-7.022h4.544v6.2H57.914V25.5a.413.413,0,0,0-.413-.413H56.261Zm-.826,5.169a3.714,3.714,0,0,1-.826-.512v-.939l.826.62ZM51.3,19.3v-.826h1.652V19.3a.826.826,0,1,1-1.652,0Zm0-1.844.816-.544a.538.538,0,0,1,.837.448v.288H51.3Zm-.578,3.621.514-.386a1.648,1.648,0,0,0,1.672.065l.54.72a1.663,1.663,0,0,1,.33.991v.952a3.682,3.682,0,0,1-.274-.546l-.169-.422-.767.307.169.422a4.564,4.564,0,0,0,2.531,2.531l.162.065v.947a6.869,6.869,0,0,1-4.757-2.333l-.613-.7V22.4a1.66,1.66,0,0,1,.661-1.322Z" transform="translate(-48 -16)" fill="#736d6d"/>
  <rect id="Rectangle_68" data-name="Rectangle 68" width="2" transform="translate(9.74 5.392)" fill="#736d6d"/>
  <rect id="Rectangle_69" data-name="Rectangle 69" width="3" height="1" transform="translate(8.74 6.392)" fill="#736d6d"/>
  <rect id="Rectangle_70" data-name="Rectangle 70" width="3" height="1" transform="translate(8.74 8.392)" fill="#736d6d"/>
  <path id="Path_44" data-name="Path 44" d="M311.6,22.34a2.486,2.486,0,0,0-1.337-1.81L309.214,20a1.642,1.642,0,0,0,.156-.7V17.239a.413.413,0,0,0-.184-.344l-1-.666a1.364,1.364,0,0,0-2.121,1.135V19.3a1.642,1.642,0,0,0,.268.9l-.424.557a3.3,3.3,0,0,0-.671,1.985V30l-1.23,5.74a.41.41,0,0,0-.009.087v4.544a.413.413,0,0,0,.413.413h1.239a.413.413,0,0,0,.406-.339l.819-4.5.35-.874.086.427a.412.412,0,0,0,.036.1l2.478,4.957a.413.413,0,0,0,.369.228h1.239a.413.413,0,0,0,.405-.494l-1.231-6.156v-4.09h.445a.413.413,0,0,0,.4-.317l.794-3.3a.414.414,0,0,0,.006-.164Zm-3.885-2.209a.827.827,0,0,1-.826-.826v-.826h1.652V19.3a.827.827,0,0,1-.826.826Zm-.826-2.766a.538.538,0,0,1,.837-.448l.816.544v.192h-1.652Zm-.826,5.383a2.468,2.468,0,0,1,.5-1.485l.378-.5a1.644,1.644,0,0,0,.233.1l-.265.785a.414.414,0,0,0-.022.132v2.478h.826V21.851l.312-.924a1.644,1.644,0,0,0,.637-.271l1.229.614a1.657,1.657,0,0,1,.891,1.207l.252,1.513-1.35.533-.348-1.2-.794.23.821,2.835v1.181h-3.3Zm.856,10.862-.826,2.065a.412.412,0,0,0-.023.08l-.764,4.2h-.481V35.871l1.071-5,.26.26a1.647,1.647,0,0,1,.452.844l.327,1.637Zm2.87.647,1.14,5.7h-.48l-2.34-4.679-.693-3.463a2.471,2.471,0,0,0-.678-1.266l-.676-.676V28.392h3.3v1.239a.413.413,0,0,0,.413.413v4.131A.413.413,0,0,0,309.791,34.256Zm.937-5.038H310.2V26.327a.415.415,0,0,0-.016-.115l-.259-.893,1.258-.5.248,1.489Z" transform="translate(-290.782 -16)" fill="#736d6d"/>
</svg>
