<svg id="budget" xmlns="http://www.w3.org/2000/svg" width="24" height="24" viewBox="0 0 24 24">
  <g id="Group_67" data-name="Group 67">
    <g id="Group_66" data-name="Group 66">
      <path id="Path_23" data-name="Path 23" d="M23.624,19.19A.376.376,0,0,0,24,18.814V5.587a.376.376,0,0,0-.11-.266L19.882,1.313a.376.376,0,0,0-.266-.11H11.173V1.127A1.129,1.129,0,0,0,10.046,0H1.127A1.129,1.129,0,0,0,0,1.127V13.253A1.129,1.129,0,0,0,1.127,14.38H4.008v9.244A.376.376,0,0,0,4.384,24h19.24A.376.376,0,0,0,24,23.624V20.818a.376.376,0,1,0-.752,0v2.43H4.76V14.38h5.286a1.129,1.129,0,0,0,1.127-1.127V6.789a.376.376,0,1,0-.752,0v6.464a.376.376,0,0,1-.376.376H1.127a.376.376,0,0,1-.376-.376V1.127A.376.376,0,0,1,1.127.752h8.919a.376.376,0,0,1,.376.376V4.785a.376.376,0,0,0,.752,0V1.954h8.068c0,.008,0,.017,0,.025V5.587a.376.376,0,0,0,.376.376h3.633V18.814A.376.376,0,0,0,23.624,19.19ZM19.992,5.211V2.486l2.725,2.725Z" fill="#736d6d"/>
    </g>
  </g>
  <g id="Group_69" data-name="Group 69" transform="translate(6.413 17.236)">
    <g id="Group_68" data-name="Group 68">
      <path id="Path_24" data-name="Path 24" d="M139.7,367.7h-2.505a.376.376,0,1,0,0,.752H139.7a.376.376,0,1,0,0-.752Z" transform="translate(-136.818 -367.699)" fill="#736d6d"/>
    </g>
  </g>
  <g id="Group_71" data-name="Group 71" transform="translate(6.413 19.24)">
    <g id="Group_70" data-name="Group 70">
      <path id="Path_25" data-name="Path 25" d="M139.7,410.455h-2.505a.376.376,0,0,0,0,.752H139.7a.376.376,0,0,0,0-.752Z" transform="translate(-136.818 -410.455)" fill="#736d6d"/>
    </g>
  </g>
  <g id="Group_73" data-name="Group 73" transform="translate(11.223 11.624)">
    <g id="Group_72" data-name="Group 72">
      <path id="Path_26" data-name="Path 26" d="M245.02,247.983a5.539,5.539,0,0,0-4.031,1.719.376.376,0,0,0,.542.52,4.821,4.821,0,1,1-.8,1.116.376.376,0,1,0-.666-.347,5.587,5.587,0,1,0,4.957-3.008Z" transform="translate(-239.433 -247.983)" fill="#736d6d"/>
    </g>
  </g>
  <g id="Group_75" data-name="Group 75" transform="translate(14.831 13.227)">
    <g id="Group_74" data-name="Group 74">
      <path id="Path_27" data-name="Path 27" d="M319.228,285.844l-.582-.017v-2.087h1.328a.376.376,0,1,0,0-.752h-1.328v-.426a.376.376,0,1,0-.752,0v.426h-.376a1.129,1.129,0,0,0-1.127,1.127v1.3a1.129,1.129,0,0,0,1.121,1.127l.382.011V288.6h-1.127a.376.376,0,1,0,0,.752h1.127v.426a.376.376,0,1,0,.752,0v-.426h.576a1.129,1.129,0,0,0,1.127-1.127v-1.253A1.129,1.129,0,0,0,319.228,285.844Zm-1.334-.039-.365-.011h-.011a.376.376,0,0,1-.376-.376v-1.3a.376.376,0,0,1,.376-.376h.376V285.8Zm1.7,2.419a.376.376,0,0,1-.376.376h-.576v-2.021l.565.017h.011a.376.376,0,0,1,.376.376Z" transform="translate(-316.391 -282.186)" fill="#736d6d"/>
    </g>
  </g>
  <g id="Group_77" data-name="Group 77" transform="translate(1.202 1.202)">
    <g id="Group_76" data-name="Group 76">
      <path id="Path_28" data-name="Path 28" d="M34.046,25.653H26.029a.376.376,0,0,0-.376.376v2a.376.376,0,0,0,.376.376h8.017a.376.376,0,0,0,.376-.376v-2A.376.376,0,0,0,34.046,25.653Zm-.376,2H26.4V26.4H33.67v1.253Z" transform="translate(-25.653 -25.653)" fill="#736d6d"/>
    </g>
  </g>
  <g id="Group_79" data-name="Group 79" transform="translate(1.202 4.409)">
    <g id="Group_78" data-name="Group 78">
      <path id="Path_29" data-name="Path 29" d="M27.632,94.063h-1.6a.376.376,0,0,0-.376.376v1.6a.376.376,0,0,0,.376.376h1.6a.376.376,0,0,0,.376-.376v-1.6A.376.376,0,0,0,27.632,94.063Zm-.376,1.6H26.4v-.852h.852Z" transform="translate(-25.653 -94.063)" fill="#736d6d"/>
    </g>
  </g>
  <g id="Group_81" data-name="Group 81" transform="translate(4.409 4.409)">
    <g id="Group_80" data-name="Group 80">
      <path id="Path_30" data-name="Path 30" d="M96.041,94.063h-1.6a.376.376,0,0,0-.376.376v1.6a.376.376,0,0,0,.376.376h1.6a.376.376,0,0,0,.376-.376v-1.6A.376.376,0,0,0,96.041,94.063Zm-.376,1.6h-.852v-.852h.852Z" transform="translate(-94.062 -94.063)" fill="#736d6d"/>
    </g>
  </g>
  <g id="Group_83" data-name="Group 83" transform="translate(7.616 4.409)">
    <g id="Group_82" data-name="Group 82">
      <path id="Path_31" data-name="Path 31" d="M164.45,94.063h-1.6a.376.376,0,0,0-.376.376v1.6a.376.376,0,0,0,.376.376h1.6a.376.376,0,0,0,.376-.376v-1.6A.376.376,0,0,0,164.45,94.063Zm-.376,1.6h-.852v-.852h.852Z" transform="translate(-162.471 -94.063)" fill="#736d6d"/>
    </g>
  </g>
  <g id="Group_85" data-name="Group 85" transform="translate(1.202 7.616)">
    <g id="Group_84" data-name="Group 84">
      <path id="Path_32" data-name="Path 32" d="M27.632,162.472h-1.6a.376.376,0,0,0-.376.376v1.6a.376.376,0,0,0,.376.376h1.6a.376.376,0,0,0,.376-.376v-1.6A.376.376,0,0,0,27.632,162.472Zm-.376,1.6H26.4v-.852h.852Z" transform="translate(-25.653 -162.472)" fill="#736d6d"/>
    </g>
  </g>
  <g id="Group_87" data-name="Group 87" transform="translate(4.409 7.616)">
    <g id="Group_86" data-name="Group 86">
      <path id="Path_33" data-name="Path 33" d="M96.041,162.472h-1.6a.376.376,0,0,0-.376.376v1.6a.376.376,0,0,0,.376.376h1.6a.376.376,0,0,0,.376-.376v-1.6A.376.376,0,0,0,96.041,162.472Zm-.376,1.6h-.852v-.852h.852Z" transform="translate(-94.062 -162.472)" fill="#736d6d"/>
    </g>
  </g>
  <g id="Group_89" data-name="Group 89" transform="translate(1.202 10.823)">
    <g id="Group_88" data-name="Group 88">
      <path id="Path_34" data-name="Path 34" d="M27.632,230.881h-1.6a.376.376,0,0,0-.376.376v1.6a.376.376,0,0,0,.376.376h1.6a.376.376,0,0,0,.376-.376v-1.6A.376.376,0,0,0,27.632,230.881Zm-.376,1.6H26.4v-.852h.852Z" transform="translate(-25.653 -230.881)" fill="#736d6d"/>
    </g>
  </g>
  <g id="Group_91" data-name="Group 91" transform="translate(4.409 10.823)">
    <g id="Group_90" data-name="Group 90">
      <path id="Path_35" data-name="Path 35" d="M96.041,230.881h-1.6a.376.376,0,0,0-.376.376v1.6a.376.376,0,0,0,.376.376h1.6a.376.376,0,0,0,.376-.376v-1.6A.376.376,0,0,0,96.041,230.881Zm-.376,1.6h-.852v-.852h.852Z" transform="translate(-94.062 -230.881)" fill="#736d6d"/>
    </g>
  </g>
  <g id="Group_93" data-name="Group 93" transform="translate(7.616 7.616)">
    <g id="Group_92" data-name="Group 92">
      <path id="Path_36" data-name="Path 36" d="M164.45,162.472h-1.6a.376.376,0,0,0-.376.376v4.81a.376.376,0,0,0,.376.376h1.6a.376.376,0,0,0,.376-.376v-4.81A.376.376,0,0,0,164.45,162.472Zm-.376,4.81h-.852v-4.058h.852Z" transform="translate(-162.471 -162.472)" fill="#736d6d"/>
    </g>
  </g>
  <g id="Group_95" data-name="Group 95" transform="translate(12.859 2.806)">
    <g id="Group_94" data-name="Group 94">
      <path id="Path_37" data-name="Path 37" d="M283.739,65.912l-2.047-1.944a.376.376,0,1,0-.518.545l1.767,1.678-.312.312-5.4-5.4a.376.376,0,0,0-.192-.1l-1.392-.278-.67-.739a.376.376,0,1,0-.557.5s.773.845.8.862l.245,1.226a.376.376,0,0,0,.1.192l5.988,5.988a1.129,1.129,0,0,0,1.594,0h0l.071-.071a1.129,1.129,0,0,0,0-1.594l-.053-.053.585-.585A.38.38,0,0,0,283.739,65.912Zm-7.565-3.6-.151-.753.753.151,3.622,3.622-.6.6Zm6.509,5.836-.071.071a.376.376,0,0,1-.531,0l-1.754-1.754.6-.6,1.754,1.754A.376.376,0,0,1,282.683,68.151Z" transform="translate(-274.318 -59.856)" fill="#736d6d"/>
    </g>
  </g>
</svg>
