<svg id="earth-day" xmlns="http://www.w3.org/2000/svg" width="26.805" height="24.711" viewBox="0 0 26.805 24.711">
  <g id="Group_96" data-name="Group 96">
    <path id="Path_38" data-name="Path 38" d="M236.745,324.633c0-.1-.009-.24-.016-.416-.009-.255-.139-.346-.451-.567l-.281-.2c-.17-.122-.282-.1-.651-.043l-.108.018c-.042-.076-.1-.171-.178-.289-.242-.359-1.033-.522-1.665-.6a1.086,1.086,0,0,0-.824.1c-.25.139-.26.354-.272.626,0,.038,0,.082-.006.132l-.067.093-.139.193c-.113.158-.1.256-.067.62.009.088.02.2.033.343.007.1.015.119.188.432l.174.316a.738.738,0,0,0,.48.309l.046.014.195,1.224c-.008.025-.02.057-.029.081a.921.921,0,0,0-.084.407c.016.609.167.921.474.981a1.2,1.2,0,0,0,1.3-.612l.013-.025a1.156,1.156,0,0,1,.428-.458,1.571,1.571,0,0,0,.59-1.175l0-.013.069-.03.227-.1c.146-.065.177-.116.375-.449l.188-.315C236.763,325.1,236.761,325.059,236.745,324.633Zm-.942.644h0Zm.018-.133-.1.17-.141.062c-.275.121-.441.194-.5.453-.011.051-.021.108-.032.17-.028.154-.1.564-.2.628a1.927,1.927,0,0,0-.751.8.5.5,0,0,1-.276.211c-.009-.073-.017-.159-.019-.238.009-.03.026-.078.038-.11a.815.815,0,0,0,.076-.407l-.229-1.442c-.052-.33-.375-.429-.567-.488l-.069-.022-.128-.232-.1-.179c-.012-.121-.021-.217-.029-.295s-.012-.124-.016-.168l.078-.109c.159-.221.2-.28.21-.429.005-.088.008-.16.011-.219v-.014a.388.388,0,0,1,.118.016l.05.012.025,0a3.736,3.736,0,0,1,1.145.278,2.835,2.835,0,0,1,.184.316.5.5,0,0,0,.537.326l.331-.054.16-.026.191.135.124.088c0,.114.008.207.011.284,0,.1.007.181.009.235Z" transform="translate(-219.847 -306.663)" fill="#736d6d"/>
    <path id="Path_39" data-name="Path 39" d="M106,157.032a.393.393,0,0,0,.006.555,8.253,8.253,0,1,0-1.119-1.355.393.393,0,0,0,.655-.433,7.478,7.478,0,0,1,.147-8.44l.021.028c0,.057.011.149.018.255s.016.25.029.429a1.2,1.2,0,0,0,.115.364c.024.058.063.152.085.216l-.158.45a6.733,6.733,0,0,0-.135.711l-.036.206c-.023.119-.023.119.166.813l.03.11c.045.167.105.215.394.446.147.117.387.31.771.624.056.1.2.368.529.989l.01.019c.121.228.269.253.667.32l.3.052.1.051.524.255a.53.53,0,0,0,.418.015.516.516,0,0,0,.291-.3c.025-.066.047-.121.065-.166a.686.686,0,0,0-.167-.891c-.067-.078-.157-.183-.272-.333-.014-.048-.039-.141-.078-.3l.555.021c.355.015.483-.27.568-.458l.022-.048.066-.039.161-.1a.668.668,0,0,0,.277-.458l.005-.021.623-.332a.494.494,0,0,0,.254-.323.886.886,0,0,0-.238-.7l-.046-.067c.7-.274,1.122-.56,1.25-.853a.449.449,0,0,0,.01-.357l-.342-.817c-.077-.186-.191-.24-.44-.357l-.2-.095c-.269-.128-.462,0-.666.138l-.135.09c-.087.05-.1.062-.385.489l-.234.345-.1-.014-.149-.022c-.029-.052-.067-.121-.108-.2-.051-.093-.114-.209-.194-.354,0-.036,0-.089-.007-.15,0-.041,0-.09-.006-.146.08-.066.21-.169.378-.3s.383-.3.668-.531.2-.479.1-.809c-.021-.071-.046-.158-.076-.263a.491.491,0,0,0-.475-.371,2.383,2.383,0,0,0-.464.06l-.342.06c-.121.02-.168.055-.344.186l-.2.15c-.1-.039-.257-.1-.484-.2a7.536,7.536,0,0,1,6.465.124v.536a.394.394,0,0,0,.022.13,2.13,2.13,0,0,0,.128.274,1.886,1.886,0,0,1,.123.265,2.179,2.179,0,0,0-.119,1.054,3.107,3.107,0,0,1,.144.689.838.838,0,0,0,.618.762l.037.011c.236.037.434-.016.92-.4a2.545,2.545,0,0,0,.726-.919.911.911,0,0,1,.076-.127,7.475,7.475,0,0,1-11.264,9.744A.393.393,0,0,0,106,157.032Zm5.4-7.744,0,0Zm-2.767-3.569c.474.2.634.263.834.116.176-.128.29-.213.365-.269l.071-.053.4-.07.037.126-.528.419c-.284.225-.413.328-.49.4a.5.5,0,0,0-.191.422c.006.118.01.209.013.279.013.285.015.336.075.443.094.169.166.3.222.4.222.406.3.542.559.579l.273.039c.352.052.585.087.77-.184l.327-.482.2-.3.1-.07.026-.017.068.032.089.042.219.524a3.564,3.564,0,0,1-.937.45c-.21.073-.261.252-.331.5a.812.812,0,0,0,.22.673l.009.012-.468.25a.67.67,0,0,0-.3.478l-.005.022-.07.041c-.194.115-.274.162-.342.306-.022.046-.041.088-.058.125l-.58-.022a.794.794,0,0,0-.552.267.512.512,0,0,0-.108.446c.156.653.188.758.269.838.1.135.188.237.256.317l-.132-.064a.871.871,0,0,0-.28-.113l-.5-.087c-.549-1.029-.551-1.031-.617-1.085-.422-.346-.682-.554-.837-.678l-.149-.12-.008-.03c-.076-.277-.122-.445-.141-.522l.027-.152c.067-.381.1-.544.106-.6l.186-.529a.987.987,0,0,0-.132-.687c-.019-.047-.047-.114-.06-.149-.011-.163-.02-.292-.026-.394-.027-.415-.035-.543-.171-.672l-.112-.152-.032-.044a7.533,7.533,0,0,1,1.607-1.364C108.056,145.472,108.37,145.609,108.635,145.719Zm9.111,1.687v0Zm-.73-.288a2.13,2.13,0,0,1-.783.811.3.3,0,0,1-.007-.044,3.866,3.866,0,0,0-.173-.84,2.487,2.487,0,0,1,.124-.621,1.1,1.1,0,0,0-.185-.839c-.02-.039-.042-.081-.059-.116a7.532,7.532,0,0,1,1.382,1.192A1.734,1.734,0,0,0,117.015,147.117Z" transform="translate(-98.105 -136.965)" fill="#736d6d"/>
    <path id="Path_40" data-name="Path 40" d="M21.762,167.231H2.068a1.284,1.284,0,0,1-1.283-1.283V150.511a.393.393,0,0,0-.785,0v15.438a2.07,2.07,0,0,0,2.068,2.068H21.762a.393.393,0,0,0,0-.785Z" transform="translate(0 -143.306)" fill="#736d6d"/>
    <path id="Path_41" data-name="Path 41" d="M24.737,22.042h-2.3v-.864a1.178,1.178,0,0,0-2.356,0v.864H17.2v-.864a1.178,1.178,0,0,0-2.356,0v.864H11.963v-.864a1.178,1.178,0,0,0-2.356,0v.864H6.727v-.864a1.178,1.178,0,0,0-2.356,0v.864h-2.3A2.07,2.07,0,0,0,0,24.11V25.6a.393.393,0,0,0,.785,0V24.11a1.284,1.284,0,0,1,1.283-1.283h2.3V23.8a1.178,1.178,0,0,0,2.356,0v-.969H9.607V23.8a1.178,1.178,0,0,0,2.356,0v-.969h2.879V23.8a1.178,1.178,0,0,0,2.356,0v-.969h2.879V23.8a1.178,1.178,0,0,0,2.356,0v-.969h2.3A1.284,1.284,0,0,1,26.02,24.11V42.643a1.284,1.284,0,0,1-1.283,1.283H23.442a.393.393,0,1,0,0,.785h1.295A2.07,2.07,0,0,0,26.8,42.643V24.11A2.07,2.07,0,0,0,24.737,22.042ZM5.942,23.8a.393.393,0,0,1-.785,0V21.178a.393.393,0,0,1,.785,0Zm5.235,0a.393.393,0,0,1-.785,0V21.178a.393.393,0,0,1,.785,0Zm5.235,0a.393.393,0,0,1-.785,0V21.178a.393.393,0,0,1,.785,0Zm5.235,0a.393.393,0,0,1-.785,0V21.178a.393.393,0,0,1,.785,0Z" transform="translate(0 -20)" fill="#736d6d"/>
  </g>
</svg>
