<svg id="email" xmlns="http://www.w3.org/2000/svg" width="18" height="18" viewBox="0 0 18 18">
  <g id="Group_98" data-name="Group 98">
    <g id="Group_97" data-name="Group 97">
      <path id="Path_42" data-name="Path 42" d="M15.1,7.547V0H2.9V7.547H0V18H18V7.547Zm0,.581H16.88L15.094,9.556ZM3.483.581H14.517V10.02L9,14.435,3.483,10.02ZM2.9,8.128V9.556L1.116,8.128H2.9Zm14.51,9.291H.581V8.444L6.25,12.979,2.629,15.633l.344.468,3.745-2.746L9,15.18l2.278-1.825L15.02,16.1l.344-.468-3.621-2.654,5.669-4.535v8.975Z" fill="#f8f8f8"/>
    </g>
  </g>
  <g id="Group_100" data-name="Group 100" transform="translate(8.709 16.257)">
    <g id="Group_99" data-name="Group 99">
      <rect id="Rectangle_61" data-name="Rectangle 61" width="0.581" height="0.581" fill="#f8f8f8"/>
    </g>
  </g>
  <g id="Group_102" data-name="Group 102" transform="translate(9.872 16.257)">
    <g id="Group_101" data-name="Group 101">
      <rect id="Rectangle_62" data-name="Rectangle 62" width="0.581" height="0.581" fill="#f8f8f8"/>
    </g>
  </g>
  <g id="Group_104" data-name="Group 104" transform="translate(7.547 16.257)">
    <g id="Group_103" data-name="Group 103">
      <rect id="Rectangle_63" data-name="Rectangle 63" width="0.581" height="0.581" fill="#f8f8f8"/>
    </g>
  </g>
  <g id="Group_106" data-name="Group 106" transform="translate(4.645 2.034)">
    <g id="Group_105" data-name="Group 105">
      <rect id="Rectangle_64" data-name="Rectangle 64" width="3.483" height="0.581" fill="#f8f8f8"/>
    </g>
  </g>
  <g id="Group_108" data-name="Group 108" transform="translate(4.645 4.355)">
    <g id="Group_107" data-name="Group 107">
      <rect id="Rectangle_65" data-name="Rectangle 65" width="8.709" height="0.581" fill="#f8f8f8"/>
    </g>
  </g>
  <g id="Group_110" data-name="Group 110" transform="translate(4.645 6.679)">
    <g id="Group_109" data-name="Group 109">
      <rect id="Rectangle_66" data-name="Rectangle 66" width="8.709" height="0.581" fill="#f8f8f8"/>
    </g>
  </g>
  <g id="Group_112" data-name="Group 112" transform="translate(9.872 9)">
    <g id="Group_111" data-name="Group 111">
      <rect id="Rectangle_67" data-name="Rectangle 67" width="3.483" height="0.581" fill="#f8f8f8"/>
    </g>
  </g>
</svg>
